<svg viewBox="0 0 1024 1024" class="icon" version="1.1" xmlns="http://www.w3.org/2000/svg" fill="#000000"><g id="SVGRepo_bgCarrier" stroke-width="0"></g><g id="SVGRepo_tracerCarrier" stroke-linecap="round" stroke-linejoin="round"></g><g id="SVGRepo_iconCarrier"><path d="M853.333333 853.333333c-147.2 0-341.333333 85.333333-341.333333 85.333334V469.333333s192-85.333333 384-85.333333l-42.666667 469.333333z" fill="#2d2d2f"></path><path d="M170.666667 853.333333c147.2 0 341.333333 85.333333 341.333333 85.333334V469.333333s-192-85.333333-384-85.333333l42.666667 469.333333z" fill="#1b1c1d"></path><path d="M512 256m-170.666667 0a170.666667 170.666667 0 1 0 341.333334 0 170.666667 170.666667 0 1 0-341.333334 0Z" fill="#7d7b78"></path><path d="M874.666667 682.666667h21.333333c12.8 0 21.333333-8.533333 21.333333-21.333334v-85.333333c0-12.8-8.533333-21.333333-21.333333-21.333333h-21.333333c-36.266667 0-64 27.733333-64 64s27.733333 64 64 64zM149.333333 554.666667H128c-12.8 0-21.333333 8.533333-21.333333 21.333333v85.333333c0 12.8 8.533333 21.333333 21.333333 21.333334h21.333333c36.266667 0 64-27.733333 64-64s-27.733333-64-64-64z" fill="#7d7b78"></path></g></svg>